<svg xmlns="http://www.w3.org/2000/svg" xmlns:xlink="http://www.w3.org/1999/xlink" width="940" zoomAndPan="magnify" viewBox="0 0 705 241.499998" height="322" preserveAspectRatio="xMidYMid meet" version="1.0"><path fill="#2d3c53" d="M 603.285156 240.925781 L 623.363281 240.925781 L 623.363281 220.851562 L 663.511719 220.851562 L 663.511719 200.777344 L 683.585938 200.777344 L 683.585938 160.628906 L 703.660156 160.628906 L 703.660156 80.328125 L 683.585938 80.328125 L 683.585938 40.175781 L 663.511719 40.175781 L 663.511719 20.101562 L 623.363281 20.101562 L 623.363281 0.0273438 L 81.335938 0.0273438 L 81.335938 20.101562 L 41.183594 20.101562 L 41.183594 40.175781 L 21.109375 40.175781 L 21.109375 80.328125 L 1.035156 80.328125 L 1.035156 160.628906 L 21.109375 160.628906 L 21.109375 200.777344 L 41.183594 200.777344 L 41.183594 220.851562 L 81.335938 220.851562 L 81.335938 240.925781 Z M 603.285156 240.925781 " fill-opacity="1" fill-rule="evenodd"/><path fill="#34bfe5" d="M 603.285156 220.851562 L 623.363281 220.851562 L 623.363281 200.777344 L 663.511719 200.777344 L 663.511719 160.628906 L 683.585938 160.628906 L 683.585938 80.328125 L 663.511719 80.328125 L 663.511719 40.175781 L 623.363281 40.175781 L 623.363281 20.101562 L 81.335938 20.101562 L 81.335938 40.175781 L 41.183594 40.175781 L 41.183594 80.328125 L 21.109375 80.328125 L 21.109375 160.628906 L 41.183594 160.628906 L 41.183594 200.777344 L 81.335938 200.777344 L 81.335938 220.851562 Z M 603.285156 220.851562 " fill-opacity="1" fill-rule="evenodd"/><path fill="#2995c1" d="M 603.285156 220.851562 L 623.363281 220.851562 L 623.363281 200.777344 L 663.511719 200.777344 L 663.511719 160.628906 L 683.585938 160.628906 L 683.585938 100.402344 L 663.511719 100.402344 L 663.511719 80.328125 L 643.4375 80.328125 L 643.4375 60.253906 L 61.257812 60.253906 L 61.257812 80.328125 L 41.183594 80.328125 L 41.183594 100.40625 L 21.109375 100.40625 L 21.109375 160.628906 L 41.183594 160.628906 L 41.183594 200.777344 L 81.335938 200.777344 L 81.335938 220.855469 L 603.285156 220.855469 Z M 603.285156 220.851562 " fill-opacity="1" fill-rule="evenodd"/><path fill="#0f7eaa" d="M 603.285156 220.851562 L 623.363281 220.851562 L 623.363281 200.777344 L 663.511719 200.777344 L 663.511719 160.628906 L 683.585938 160.628906 L 683.585938 120.476562 L 663.511719 120.476562 L 663.511719 160.628906 L 643.4375 160.628906 L 643.4375 180.703125 L 603.285156 180.703125 L 603.285156 200.777344 L 101.410156 200.777344 L 101.410156 180.703125 L 61.257812 180.703125 L 61.257812 160.628906 L 41.183594 160.628906 L 41.183594 120.476562 L 21.109375 120.476562 L 21.109375 160.628906 L 41.183594 160.628906 L 41.183594 200.777344 L 81.335938 200.777344 L 81.335938 220.851562 Z M 603.285156 220.851562 " fill-opacity="1" fill-rule="evenodd"/><path fill="#6fcff1" d="M 21.109375 100.402344 L 41.183594 100.402344 L 41.183594 80.328125 L 61.257812 80.328125 L 61.257812 60.253906 L 101.410156 60.253906 L 101.410156 40.175781 L 141.558594 40.175781 L 141.558594 20.101562 L 81.335938 20.101562 L 81.335938 40.175781 L 41.183594 40.175781 L 41.183594 80.328125 L 21.109375 80.328125 Z M 21.109375 100.402344 " fill-opacity="1" fill-rule="evenodd"/></svg>